<svg width="20" height="20" viewBox="0 0 20 20" fill="none" xmlns="http://www.w3.org/2000/svg">
<g id="Frame">
<path id="Vector" d="M2.5 5.83333L2.5 4.16667C2.5 3.72464 2.67559 3.30072 2.98816 2.98816C3.30072 2.67559 3.72464 2.5 4.16667 2.5H5.83333" stroke="#24B300" stroke-width="1.54323" stroke-linecap="round" stroke-linejoin="round"/>
<path id="Vector_2" d="M14.1667 2.5L15.8334 2.5C16.2754 2.5 16.6994 2.67559 17.0119 2.98816C17.3245 3.30072 17.5001 3.72464 17.5001 4.16667V5.83333" stroke="#24B300" stroke-width="1.54323" stroke-linecap="round" stroke-linejoin="round"/>
<path id="Vector_3" d="M17.5001 14.1667V15.8334C17.5001 16.2754 17.3245 16.6994 17.0119 17.0119C16.6994 17.3245 16.2754 17.5001 15.8334 17.5001H14.1667" stroke="#24B300" stroke-width="1.54323" stroke-linecap="round" stroke-linejoin="round"/>
<path id="Vector_4" d="M5.83333 17.5001H4.16667C3.72464 17.5001 3.30072 17.3245 2.98816 17.0119C2.67559 16.6994 2.5 16.2754 2.5 15.8334V14.1667" stroke="#24B300" stroke-width="1.54323" stroke-linecap="round" stroke-linejoin="round"/>
<path id="Vector_5" d="M10 12.5C11.3807 12.5 12.5 11.3807 12.5 10C12.5 8.61929 11.3807 7.5 10 7.5C8.61929 7.5 7.5 8.61929 7.5 10C7.5 11.3807 8.61929 12.5 10 12.5Z" stroke="#24B300" stroke-width="1.54323" stroke-linecap="round" stroke-linejoin="round"/>
<path id="Vector_6" d="M13.3333 13.3333L11.75 11.75" stroke="#24B300" stroke-width="1.54323" stroke-linecap="round" stroke-linejoin="round"/>
</g>
</svg>
