<svg width="20" height="20" viewBox="0 0 20 20" fill="none" xmlns="http://www.w3.org/2000/svg">
<g id="Frame">
<path id="Vector" d="M16.6667 2.5H12.5001C12.0398 2.5 11.6667 2.8731 11.6667 3.33333V7.5C11.6667 7.96024 12.0398 8.33333 12.5001 8.33333H16.6667C17.127 8.33333 17.5001 7.96024 17.5001 7.5V3.33333C17.5001 2.8731 17.127 2.5 16.6667 2.5Z" stroke="#009AB3" stroke-width="1.0125" stroke-linecap="round" stroke-linejoin="round"/>
<path id="Vector_2" d="M8.33333 17.4999V6.66659C8.33333 6.44557 8.24554 6.23361 8.08926 6.07733C7.93298 5.92105 7.72101 5.83325 7.5 5.83325H3.33333C3.11232 5.83325 2.90036 5.92105 2.74408 6.07733C2.5878 6.23361 2.5 6.44557 2.5 6.66659V16.6666C2.5 16.8876 2.5878 17.0996 2.74408 17.2558C2.90036 17.4121 3.11232 17.4999 3.33333 17.4999H13.3333C13.5543 17.4999 13.7663 17.4121 13.9226 17.2558C14.0789 17.0996 14.1667 16.8876 14.1667 16.6666V12.4999C14.1667 12.2789 14.0789 12.0669 13.9226 11.9107C13.7663 11.7544 13.5543 11.6666 13.3333 11.6666H2.5" stroke="#009AB3" stroke-width="1.0125" stroke-linecap="round" stroke-linejoin="round"/>
</g>
</svg>
