<svg width="22" height="22" viewBox="0 0 22 22" fill="none" xmlns="http://www.w3.org/2000/svg">
<g id="Group">
<path id="Vector" d="M4.83325 21V3C4.83325 2.46957 5.04397 1.96086 5.41904 1.58579C5.79411 1.21071 6.30282 1 6.83325 1H14.8333C15.3637 1 15.8724 1.21071 16.2475 1.58579C16.6225 1.96086 16.8333 2.46957 16.8333 3V21H4.83325Z" stroke="#0040B3" stroke-linecap="round" stroke-linejoin="round"/>
<path id="Vector_2" d="M4.83325 11H2.83325C2.30282 11 1.79411 11.2107 1.41904 11.5858C1.04397 11.9609 0.833252 12.4696 0.833252 13V19C0.833252 19.5304 1.04397 20.0391 1.41904 20.4142C1.79411 20.7893 2.30282 21 2.83325 21H4.83325" stroke="#0040B3" stroke-linecap="round" stroke-linejoin="round"/>
<path id="Vector_3" d="M16.8333 8H18.8333C19.3637 8 19.8724 8.21071 20.2475 8.58579C20.6225 8.96086 20.8333 9.46957 20.8333 10V19C20.8333 19.5304 20.6225 20.0391 20.2475 20.4142C19.8724 20.7893 19.3637 21 18.8333 21H16.8333" stroke="#0040B3" stroke-linecap="round" stroke-linejoin="round"/>
<path id="Vector_4" d="M8.83325 5H12.8333" stroke="#0040B3" stroke-linecap="round" stroke-linejoin="round"/>
<path id="Vector_5" d="M8.83325 9H12.8333" stroke="#0040B3" stroke-linecap="round" stroke-linejoin="round"/>
<path id="Vector_6" d="M8.83325 13H12.8333" stroke="#0040B3" stroke-linecap="round" stroke-linejoin="round"/>
<path id="Vector_7" d="M8.83325 17H12.8333" stroke="#0040B3" stroke-linecap="round" stroke-linejoin="round"/>
</g>
</svg>
