<svg width="22" height="20" viewBox="0 0 22 20" fill="none" xmlns="http://www.w3.org/2000/svg">
<g id="Group">
<path id="Vector" d="M14.6667 19V17C14.6667 15.9391 14.2453 14.9217 13.4952 14.1716C12.745 13.4214 11.7276 13 10.6667 13H4.66675C3.60588 13 2.58847 13.4214 1.83832 14.1716C1.08818 14.9217 0.666748 15.9391 0.666748 17V19" stroke="#0040B3" stroke-linecap="round" stroke-linejoin="round"/>
<path id="Vector_2" d="M7.66675 9C9.87589 9 11.6667 7.20914 11.6667 5C11.6667 2.79086 9.87589 1 7.66675 1C5.45761 1 3.66675 2.79086 3.66675 5C3.66675 7.20914 5.45761 9 7.66675 9Z" stroke="#0040B3" stroke-linecap="round" stroke-linejoin="round"/>
<path id="Vector_3" d="M20.6667 18.9999V16.9999C20.6661 16.1136 20.3711 15.2527 19.8281 14.5522C19.2851 13.8517 18.5249 13.3515 17.6667 13.1299" stroke="#0040B3" stroke-linecap="round" stroke-linejoin="round"/>
<path id="Vector_4" d="M14.6667 1.12988C15.5272 1.35018 16.2898 1.85058 16.8344 2.55219C17.379 3.2538 17.6746 4.11671 17.6746 5.00488C17.6746 5.89305 17.379 6.75596 16.8344 7.45757C16.2898 8.15918 15.5272 8.65958 14.6667 8.87988" stroke="#0040B3" stroke-linecap="round" stroke-linejoin="round"/>
</g>
</svg>
