<svg width="24" height="24" viewBox="0 0 24 24" fill="none" xmlns="http://www.w3.org/2000/svg">
<g id="Frame">
<path id="Vector" d="M3 7V5C3 4.46957 3.21071 3.96086 3.58579 3.58579C3.96086 3.21071 4.46957 3 5 3H7" stroke="#18E6F8" stroke-linecap="round" stroke-linejoin="round"/>
<path id="Vector_2" d="M17 3H19C19.5304 3 20.0391 3.21071 20.4142 3.58579C20.7893 3.96086 21 4.46957 21 5V7" stroke="#18E6F8" stroke-linecap="round" stroke-linejoin="round"/>
<path id="Vector_3" d="M21 17V19C21 19.5304 20.7893 20.0391 20.4142 20.4142C20.0391 20.7893 19.5304 21 19 21H17" stroke="#18E6F8" stroke-linecap="round" stroke-linejoin="round"/>
<path id="Vector_4" d="M7 21H5C4.46957 21 3.96086 20.7893 3.58579 20.4142C3.21071 20.0391 3 19.5304 3 19V17" stroke="#18E6F8" stroke-linecap="round" stroke-linejoin="round"/>
<path id="Vector_5" d="M12 15C13.6569 15 15 13.6569 15 12C15 10.3431 13.6569 9 12 9C10.3431 9 9 10.3431 9 12C9 13.6569 10.3431 15 12 15Z" stroke="#18E6F8" stroke-linecap="round" stroke-linejoin="round"/>
<path id="Vector_6" d="M16.0001 16L14.1001 14.1" stroke="#18E6F8" stroke-linecap="round" stroke-linejoin="round"/>
</g>
</svg>
